# xmcd
#
# Track frame offsets: 
#        150
#        13387
#        24297
#        37500
#        50900
#        67397
#        83435
#        97715
#        111325
#        124105
#
# Disc length: 1799 seconds
#
# Revision: 4
# Processed by: cddbd v1.5.2PL0 Copyright (c) Steve Scherf et al.
# Submitted via: ExactAudioCopyFreeDBPlugin 1.0
#
DISCID=7907050a
DTITLE=Various Artist - Country Love Songs (Volume Two)
DYEAR=1900
DGENRE=Country
TTITLE0=Charlie Rich - Behind Closed Doors
TTITLE1=Tanya Tucker - Would You Lay With Me (In A Field Of Stone)?
TTITLE2=Larry Gatlin - The Gatlin Brothers - Houston (Means I'm One Day
TTITLE2=Closer To You)
TTITLE3=Ray Price - Heartaches By The Number
TTITLE4=Tammy Wynette - Mark Gray - Sometimes When We Touch
TTITLE5=Willie Nelson - Always On My Mind
TTITLE6=Janie Fricke - Johnny Duncan - Come A Little Bit Closer
TTITLE7=Charly McLain - Mickey Gilley - Paradise Tonight
TTITLE8=Merle Haggard - Let's Chase Each Other Around The Room
TTITLE9=George Jones - Walk Through This World With Me
EXTD=
EXTT0=
EXTT1=
EXTT2=
EXTT3=
EXTT4=
EXTT5=
EXTT6=
EXTT7=
EXTT8=
EXTT9=
PLAYORDER=
